<svg xmlns="http://www.w3.org/2000/svg" xmlns:xlink="http://www.w3.org/1999/xlink" width="1200" zoomAndPan="magnify" viewBox="0 0 900 149.999998" height="200" preserveAspectRatio="xMidYMid meet" version="1.0"><defs><g/><clipPath id="8b71b13acd"><path d="M 499 18.996094 L 556 18.996094 L 556 76 L 499 76 Z M 499 18.996094 " clip-rule="nonzero"/></clipPath><clipPath id="c0de8fe013"><path d="M 481.789062 84 L 574 84 L 574 135 L 481.789062 135 Z M 481.789062 84 " clip-rule="nonzero"/></clipPath><clipPath id="aca4551127"><path d="M 499 18.996094 L 528 18.996094 L 528 76 L 499 76 Z M 499 18.996094 " clip-rule="nonzero"/></clipPath><clipPath id="8994ab46e4"><path d="M 481.789062 84 L 528 84 L 528 135 L 481.789062 135 Z M 481.789062 84 " clip-rule="nonzero"/></clipPath></defs><g fill="#9e8638" fill-opacity="1"><g transform="translate(15.000007, 127.389692)"><g><path d="M 37.65625 -68.15625 L 30.234375 -68.15625 L 30.234375 -92.3125 C 30.234375 -94.46875 29.78125 -96.015625 28.875 -96.953125 C 27.976562 -97.898438 26.40625 -98.375 24.15625 -98.375 L 19.84375 -98.375 C 17.59375 -98.375 16.015625 -97.898438 15.109375 -96.953125 C 14.210938 -96.015625 13.765625 -94.46875 13.765625 -92.3125 L 13.765625 -11.875 C 13.765625 -9.71875 14.210938 -8.164062 15.109375 -7.21875 C 16.015625 -6.269531 17.59375 -5.796875 19.84375 -5.796875 L 24.15625 -5.796875 C 26.40625 -5.796875 27.976562 -6.269531 28.875 -7.21875 C 29.78125 -8.164062 30.234375 -9.71875 30.234375 -11.875 L 30.234375 -35.890625 L 37.65625 -35.890625 L 37.65625 -11.734375 C 37.65625 -3.816406 33.515625 0.140625 25.234375 0.140625 L 18.765625 0.140625 C 10.484375 0.140625 6.34375 -3.816406 6.34375 -11.734375 L 6.34375 -92.4375 C 6.34375 -100.351562 10.484375 -104.3125 18.765625 -104.3125 L 25.234375 -104.3125 C 33.515625 -104.3125 37.65625 -100.351562 37.65625 -92.4375 Z M 37.65625 -68.15625 "/></g></g></g><g fill="#9e8638" fill-opacity="1"><g transform="translate(79.374974, 127.389692)"><g><path d="M 23.484375 -104.3125 C 31.753906 -104.3125 35.890625 -100.351562 35.890625 -92.4375 L 35.890625 -11.734375 C 35.890625 -3.910156 31.753906 0 23.484375 0 L 18.765625 0 C 10.578125 0 6.484375 -3.910156 6.484375 -11.734375 L 6.484375 -92.4375 C 6.484375 -100.351562 10.578125 -104.3125 18.765625 -104.3125 Z M 28.46875 -92.03125 C 28.46875 -94.195312 28.019531 -95.75 27.125 -96.6875 C 26.226562 -97.632812 24.65625 -98.109375 22.40625 -98.109375 L 19.96875 -98.109375 C 17.71875 -98.109375 16.117188 -97.632812 15.171875 -96.6875 C 14.234375 -95.75 13.765625 -94.195312 13.765625 -92.03125 L 13.765625 -12.28125 C 13.765625 -10.03125 14.234375 -8.453125 15.171875 -7.546875 C 16.117188 -6.648438 17.71875 -6.203125 19.96875 -6.203125 L 22.40625 -6.203125 C 24.65625 -6.203125 26.226562 -6.648438 27.125 -7.546875 C 28.019531 -8.453125 28.46875 -10.03125 28.46875 -12.28125 Z M 28.46875 -92.03125 "/></g></g></g><g fill="#9e8638" fill-opacity="1"><g transform="translate(143.345084, 127.389692)"><g><path d="M 14.03125 0 L 7.015625 0 L 7.015625 -104.3125 L 17.140625 -104.3125 L 31.3125 -13.625 L 31.3125 -104.3125 L 38.328125 -104.3125 L 38.328125 0 L 29.015625 0 L 14.03125 -92.578125 Z M 14.03125 0 "/></g></g></g><g fill="#9e8638" fill-opacity="1"><g transform="translate(210.554096, 127.389692)"><g><path d="M 32.65625 -104.3125 L 32.65625 -98.109375 L 20.25 -98.109375 L 20.25 0 L 12.953125 0 L 12.953125 -98.109375 L 0.671875 -98.109375 L 0.671875 -104.3125 Z M 32.65625 -104.3125 "/></g></g></g><g fill="#9e8638" fill-opacity="1"><g transform="translate(265.617173, 127.389692)"><g><path d="M 41.96875 0 L 34.546875 0 L 31.046875 -23.21875 L 12.28125 -23.21875 L 9.046875 0 L 1.625 0 L 19.296875 -104.3125 L 22.9375 -104.3125 Z M 21.328125 -86.234375 L 13.21875 -29.421875 L 29.953125 -29.421875 Z M 21.328125 -86.234375 "/></g></g></g><g fill="#9e8638" fill-opacity="1"><g transform="translate(330.936815, 127.389692)"><g><path d="M 37.65625 -68.15625 L 30.234375 -68.15625 L 30.234375 -92.3125 C 30.234375 -94.46875 29.78125 -96.015625 28.875 -96.953125 C 27.976562 -97.898438 26.40625 -98.375 24.15625 -98.375 L 19.84375 -98.375 C 17.59375 -98.375 16.015625 -97.898438 15.109375 -96.953125 C 14.210938 -96.015625 13.765625 -94.46875 13.765625 -92.3125 L 13.765625 -11.875 C 13.765625 -9.71875 14.210938 -8.164062 15.109375 -7.21875 C 16.015625 -6.269531 17.59375 -5.796875 19.84375 -5.796875 L 24.15625 -5.796875 C 26.40625 -5.796875 27.976562 -6.269531 28.875 -7.21875 C 29.78125 -8.164062 30.234375 -9.71875 30.234375 -11.875 L 30.234375 -35.890625 L 37.65625 -35.890625 L 37.65625 -11.734375 C 37.65625 -3.816406 33.515625 0.140625 25.234375 0.140625 L 18.765625 0.140625 C 10.484375 0.140625 6.34375 -3.816406 6.34375 -11.734375 L 6.34375 -92.4375 C 6.34375 -100.351562 10.484375 -104.3125 18.765625 -104.3125 L 25.234375 -104.3125 C 33.515625 -104.3125 37.65625 -100.351562 37.65625 -92.4375 Z M 37.65625 -68.15625 "/></g></g></g><g fill="#9e8638" fill-opacity="1"><g transform="translate(395.311761, 127.389692)"><g><path d="M 32.65625 -104.3125 L 32.65625 -98.109375 L 20.25 -98.109375 L 20.25 0 L 12.953125 0 L 12.953125 -98.109375 L 0.671875 -98.109375 L 0.671875 -104.3125 Z M 32.65625 -104.3125 "/></g></g></g><g fill="#9e8638" fill-opacity="1"><g transform="translate(450.365474, 127.389692)"><g/></g></g><g fill="#9e8638" fill-opacity="1"><g transform="translate(490.853432, 127.389692)"><g/></g></g><g fill="#9e8638" fill-opacity="1"><g transform="translate(531.341389, 127.389692)"><g/></g></g><g fill="#9e8638" fill-opacity="1"><g transform="translate(571.829346, 127.389692)"><g/></g></g><g fill="#9e8638" fill-opacity="1"><g transform="translate(612.317303, 127.389692)"><g/></g></g><g fill="#9e8638" fill-opacity="1"><g transform="translate(652.786648, 127.389692)"><g><path d="M 32.796875 0 L 22.40625 -34.28125 L 14.4375 -34.28125 L 14.4375 0 L 7.015625 0 L 7.015625 -104.3125 L 26.71875 -104.3125 C 34.90625 -104.3125 39 -100.351562 39 -92.4375 L 39 -46.015625 C 39 -39.179688 35.894531 -35.3125 29.6875 -34.40625 L 40.625 0 Z M 14.4375 -98.109375 L 14.4375 -40.34375 L 25.5 -40.34375 C 27.75 -40.34375 29.347656 -40.789062 30.296875 -41.6875 C 31.242188 -42.59375 31.71875 -44.171875 31.71875 -46.421875 L 31.71875 -92.03125 C 31.71875 -94.195312 31.242188 -95.75 30.296875 -96.6875 C 29.347656 -97.632812 27.75 -98.109375 25.5 -98.109375 Z M 14.4375 -98.109375 "/></g></g></g><g fill="#9e8638" fill-opacity="1"><g transform="translate(717.026657, 127.389692)"><g><path d="M 14.4375 -50.875 L 14.4375 -6.203125 L 35.359375 -6.203125 L 35.359375 0 L 7.015625 0 L 7.015625 -104.3125 L 34.40625 -104.3125 L 34.40625 -98.109375 L 14.4375 -98.109375 L 14.4375 -56.953125 L 31.71875 -56.953125 L 31.71875 -50.875 Z M 14.4375 -50.875 "/></g></g></g><g fill="#9e8638" fill-opacity="1"><g transform="translate(776.67821, 127.389692)"><g><path d="M 14.4375 -50.875 L 14.4375 -6.203125 L 35.359375 -6.203125 L 35.359375 0 L 7.015625 0 L 7.015625 -104.3125 L 34.40625 -104.3125 L 34.40625 -98.109375 L 14.4375 -98.109375 L 14.4375 -56.953125 L 31.71875 -56.953125 L 31.71875 -50.875 Z M 14.4375 -50.875 "/></g></g></g><g fill="#9e8638" fill-opacity="1"><g transform="translate(836.329764, 127.389692)"><g><path d="M 14.4375 -104.3125 L 14.4375 -6.203125 L 33.0625 -6.203125 L 33.0625 0 L 7.015625 0 L 7.015625 -104.3125 Z M 14.4375 -104.3125 "/></g></g></g><g clip-path="url(#8b71b13acd)"><path fill="#b2963e" d="M 527.449219 18.8125 C 511.894531 18.8125 499.28125 31.464844 499.28125 47.074219 C 499.28125 62.683594 511.894531 75.335938 527.449219 75.335938 C 543.007812 75.335938 555.621094 62.683594 555.621094 47.074219 C 555.621094 31.464844 543.007812 18.8125 527.449219 18.8125 Z M 527.449219 18.8125 " fill-opacity="1" fill-rule="evenodd"/></g><g clip-path="url(#c0de8fe013)"><path fill="#b2963e" d="M 506.695312 84.261719 C 492.777344 84.261719 481.492188 95.582031 481.492188 109.546875 L 481.492188 130.371094 C 481.492188 132.835938 483.484375 134.835938 485.9375 134.835938 L 568.960938 134.835938 C 571.417969 134.835938 573.410156 132.835938 573.410156 130.371094 L 573.410156 109.546875 C 573.410156 95.582031 562.125 84.261719 548.207031 84.261719 Z M 506.695312 84.261719 " fill-opacity="1" fill-rule="evenodd"/></g><path fill="#9f1a1d" d="M 586.753906 45.585938 C 589.210938 45.585938 591.199219 47.582031 591.199219 50.046875 L 591.199219 85.746094 C 591.199219 88.210938 589.210938 90.210938 586.753906 90.210938 C 584.296875 90.210938 582.304688 88.210938 582.304688 85.746094 L 582.304688 50.046875 C 582.304688 47.582031 584.296875 45.585938 586.753906 45.585938 Z M 586.753906 45.585938 " fill-opacity="1" fill-rule="evenodd"/><path fill="#9f1a1d" d="M 564.515625 67.898438 C 564.515625 65.433594 566.507812 63.433594 568.960938 63.433594 L 604.542969 63.433594 C 607 63.433594 608.992188 65.433594 608.992188 67.898438 C 608.992188 70.363281 607 72.359375 604.542969 72.359375 L 568.960938 72.359375 C 566.507812 72.359375 564.515625 70.363281 564.515625 67.898438 Z M 564.515625 67.898438 " fill-opacity="1" fill-rule="evenodd"/><g clip-path="url(#aca4551127)"><path fill="#9e8638" d="M 527.449219 18.8125 L 527.449219 75.335938 C 511.894531 75.335938 499.28125 62.683594 499.28125 47.074219 C 499.28125 31.464844 511.894531 18.8125 527.449219 18.8125 Z M 527.449219 18.8125 " fill-opacity="1" fill-rule="evenodd"/></g><g clip-path="url(#8994ab46e4)"><path fill="#9e8638" d="M 527.449219 84.261719 L 527.449219 134.835938 L 485.9375 134.835938 C 483.484375 134.835938 481.492188 132.835938 481.492188 130.371094 L 481.492188 109.546875 C 481.492188 95.582031 492.777344 84.261719 506.695312 84.261719 Z M 527.449219 84.261719 " fill-opacity="1" fill-rule="evenodd"/></g><path fill="#831619" d="M 586.753906 45.585938 C 584.296875 45.585938 582.304688 47.582031 582.304688 50.046875 L 582.304688 85.746094 C 582.304688 88.210938 584.296875 90.210938 586.753906 90.210938 Z M 586.753906 45.585938 " fill-opacity="1" fill-rule="evenodd"/><path fill="#831619" d="M 586.753906 63.433594 L 586.753906 72.359375 L 568.960938 72.359375 C 566.507812 72.359375 564.515625 70.363281 564.515625 67.898438 C 564.515625 65.433594 566.507812 63.433594 568.960938 63.433594 Z M 586.753906 63.433594 " fill-opacity="1" fill-rule="evenodd"/></svg>