<svg xmlns="http://www.w3.org/2000/svg" xmlns:xlink="http://www.w3.org/1999/xlink" width="500" zoomAndPan="magnify" viewBox="0 0 375 374.999991" height="500" preserveAspectRatio="xMidYMid meet" version="1.0"><defs><clipPath id="676ff67e89"><path d="M 59 19.472656 L 223 19.472656 L 223 183 L 59 183 Z M 59 19.472656 " clip-rule="nonzero"/></clipPath><clipPath id="5b5e120229"><path d="M 8.667969 208 L 275 208 L 275 355 L 8.667969 355 Z M 8.667969 208 " clip-rule="nonzero"/></clipPath><clipPath id="753eba8dc6"><path d="M 59 19.472656 L 142 19.472656 L 142 183 L 59 183 Z M 59 19.472656 " clip-rule="nonzero"/></clipPath><clipPath id="f4f6304d41"><path d="M 8.667969 208 L 142 208 L 142 355 L 8.667969 355 Z M 8.667969 208 " clip-rule="nonzero"/></clipPath></defs><g clip-path="url(#676ff67e89)"><path fill="#b2963e" d="M 141.089844 18.9375 C 95.972656 18.9375 59.398438 55.511719 59.398438 100.625 C 59.398438 145.738281 95.972656 182.3125 141.089844 182.3125 C 186.207031 182.3125 222.777344 145.738281 222.777344 100.625 C 222.777344 55.511719 186.207031 18.9375 141.089844 18.9375 Z M 141.089844 18.9375 " fill-opacity="1" fill-rule="evenodd"/></g><g clip-path="url(#5b5e120229)"><path fill="#b2963e" d="M 80.898438 208.109375 C 40.53125 208.109375 7.808594 240.832031 7.808594 281.199219 L 7.808594 341.390625 C 7.808594 348.511719 13.582031 354.289062 20.707031 354.289062 L 261.472656 354.289062 C 268.597656 354.289062 274.371094 348.511719 274.371094 341.390625 L 274.371094 281.199219 C 274.371094 240.832031 241.648438 208.109375 201.28125 208.109375 Z M 80.898438 208.109375 " fill-opacity="1" fill-rule="evenodd"/></g><path fill="#9f1a1d" d="M 313.066406 96.324219 C 320.1875 96.324219 325.964844 102.101562 325.964844 109.222656 L 325.964844 212.410156 C 325.964844 219.53125 320.1875 225.308594 313.066406 225.308594 C 305.941406 225.308594 300.167969 219.53125 300.167969 212.410156 L 300.167969 109.222656 C 300.167969 102.101562 305.941406 96.324219 313.066406 96.324219 Z M 313.066406 96.324219 " fill-opacity="1" fill-rule="evenodd"/><path fill="#9f1a1d" d="M 248.574219 160.816406 C 248.574219 153.691406 254.351562 147.917969 261.472656 147.917969 L 364.660156 147.917969 C 371.78125 147.917969 377.558594 153.691406 377.558594 160.816406 C 377.558594 167.9375 371.78125 173.714844 364.660156 173.714844 L 261.472656 173.714844 C 254.351562 173.714844 248.574219 167.9375 248.574219 160.816406 Z M 248.574219 160.816406 " fill-opacity="1" fill-rule="evenodd"/><g clip-path="url(#753eba8dc6)"><path fill="#9e8638" d="M 141.089844 18.9375 L 141.089844 182.3125 C 95.972656 182.3125 59.398438 145.738281 59.398438 100.625 C 59.398438 55.511719 95.972656 18.9375 141.089844 18.9375 Z M 141.089844 18.9375 " fill-opacity="1" fill-rule="evenodd"/></g><g clip-path="url(#f4f6304d41)"><path fill="#9e8638" d="M 141.089844 208.109375 L 141.089844 354.289062 L 20.707031 354.289062 C 13.582031 354.289062 7.808594 348.511719 7.808594 341.390625 L 7.808594 281.199219 C 7.808594 240.832031 40.53125 208.109375 80.898438 208.109375 Z M 141.089844 208.109375 " fill-opacity="1" fill-rule="evenodd"/></g><path fill="#831619" d="M 313.066406 96.324219 C 305.941406 96.324219 300.167969 102.101562 300.167969 109.222656 L 300.167969 212.410156 C 300.167969 219.53125 305.941406 225.308594 313.066406 225.308594 Z M 313.066406 96.324219 " fill-opacity="1" fill-rule="evenodd"/><path fill="#831619" d="M 313.066406 147.917969 L 313.066406 173.714844 L 261.472656 173.714844 C 254.351562 173.714844 248.574219 167.9375 248.574219 160.816406 C 248.574219 153.691406 254.351562 147.917969 261.472656 147.917969 Z M 313.066406 147.917969 " fill-opacity="1" fill-rule="evenodd"/></svg>